<?xml version="1.0" encoding="UTF-8"?>
<!DOCTYPE svg PUBLIC "-//W3C//DTD SVG 1.1//EN" "http://www.w3.org/Graphics/SVG/1.1/DTD/svg11.dtd">
<!-- Creator: CorelDRAW 2021 (64-Bit) -->
<svg xmlns="http://www.w3.org/2000/svg" xml:space="preserve" width="244.409mm" height="56.7505mm" version="1.1" style="shape-rendering:geometricPrecision; text-rendering:geometricPrecision; image-rendering:optimizeQuality; fill-rule:evenodd; clip-rule:evenodd"
viewBox="0 0 16964.32 3939.03"
 xmlns:xlink="http://www.w3.org/1999/xlink"
 xmlns:xodm="http://www.corel.com/coreldraw/odm/2003">
 <defs>
  <style type="text/css">
   <![CDATA[
    .fil3 {fill:#26176B}
    .fil1 {fill:#28156B}
    .fil0 {fill:#28156C}
    .fil2 {fill:#29176E}
   ]]>
  </style>
 </defs>
 <g id="Layer_x0020_1">
  <metadata id="CorelCorpID_0Corel-Layer"/>
  <g id="_2317590184592">
   <path class="fil0" d="M14137.79 1595.78c17.26,29.01 40.9,189.75 33.08,230.73 -23.18,121.33 -90.88,63.45 -123.35,151.97 -20.36,55.53 15.46,62.01 -28.33,109.98 -179.76,197.01 -374.67,196.43 -277.63,-75.55 25.07,-70.27 60.31,-126.24 98.8,-176.86 49.54,-65.19 188.13,-228.02 297.43,-240.26zm1929.79 602.11c65.13,-180.11 260.99,-411.93 420.57,-513.1 26.23,-16.62 177.74,-104.39 209.27,-73.48 104.12,102.05 -389.48,579.4 -629.84,586.57zm896.74 -433.47l0 -151.67c-64.44,-97.27 -120.01,-149.58 -265.85,-158.76 -65.59,-4.14 -128.52,7.64 -183.41,28.25 -53.27,20 -95.06,52.92 -142.48,69.02 21.98,-91.31 36.24,-155.16 -49.72,-189.87 -53.89,-21.76 -159.05,-17.72 -202.4,11.1 -44.24,29.43 -46.05,133.53 -61.49,186.05 -64.12,218.13 -114.8,311.66 -289.58,453.85 -71.53,58.2 -134.34,112.42 -215.25,160.66 -177.16,105.65 -67.92,-189.42 -37.11,-256.1 59.66,-129.17 246.58,-359.92 231.52,-421.66 -17.13,-70.12 -154.17,-100.1 -246.47,-87.18 -56.11,75.21 -102.85,153.29 -151.4,231.72 -67.76,109.5 -250.92,341.25 -345.52,425.04 -204.72,181.3 -344.1,165.49 -183.75,-119.52 111.32,-197.87 272.16,-295.58 285.45,-330.51 36.32,-95.5 -99.33,-116.36 -177.93,-111.12 -110.21,7.35 -140.46,57.39 -190.69,120.08 -40.69,50.79 -87.37,116.18 -123.52,179.24 -50.02,87.21 -234.51,280.25 -340.16,275.97 17.43,-68.76 282.22,-357.65 32.75,-489.52 -1.78,-180.56 -186.62,-218.06 -348.7,-158.35 -290.99,107.22 -335.26,332.67 -559.43,542.06 -56.49,52.77 -231.08,208.51 -320.33,227.04 -11.45,-165.56 211.66,-426.01 283.5,-502.46 321.75,-342.36 -113.33,-265.07 -266.64,-275.95 11.95,-50.49 111.24,-136.8 105.69,-214.54 -10.69,-149.94 -283.68,6.71 -392.24,130.04 -93.72,106.46 -87.5,144.71 -33.39,218.13 -26.77,62.86 -125.32,192.46 -167.53,241.86 -21.61,25.29 -83.76,93.92 -94.66,116.81 -27.31,57.35 9.59,112.78 72.39,108.31 70.45,-5.03 359.07,-396.02 383.71,-439.5 57.59,1.76 115.76,9.13 165.9,29.24 -14.92,52.61 -85.63,109.78 -114.64,138.75 -445.53,444.71 -194.83,736.68 148.06,597.31 129.84,-52.77 209.76,-146.95 298.87,-209.94 20.62,26.69 12.13,20.03 23.14,54.62 38.78,121.72 156.8,185.8 288.91,184.47 191.41,-1.93 260.97,-85.18 367.06,-167.29 83.15,22.82 103.24,61.71 219.62,22.59 72.94,-24.52 114.37,-65.09 165.81,-99.35 46.62,69.63 18.45,104.53 114.62,161.11 291.49,171.5 484.31,-130.32 548.84,-165.01 1.19,160.34 80.81,262.31 254.62,245.4 200.11,-19.46 268.8,-125.92 343.47,-154.02 -13.47,66.94 -80.5,203.61 -108.24,268.29l-223.76 500.38c-35.25,75.67 -109.67,172.31 -95.15,266.68 44.51,74.91 240.96,15.6 293.53,-31.41 40.01,-35.79 102.43,-189.97 122.02,-262.79 16.25,-60.35 12.08,-115.74 29.01,-171.98 22.86,-76.02 132.33,-364.96 161.85,-415.94 71.62,-5.98 114.62,3.41 190.17,-12.79 139.03,-29.82 309.68,-94.86 425.45,-171.83 85.05,-56.56 163.61,-119.37 221.24,-182.52 146.1,-160.04 87.78,-133.44 154.26,-242.49z"/>
   <path class="fil0" d="M11743.62 2316.84c-40.55,181.92 -354.31,643.52 -522.79,781.79 -301.05,247.09 -566.42,30.8 -28.78,-469.4 96.85,-90.1 374.08,-268.29 551.58,-312.4zm385.99 -259.04c14.78,-78.03 90.67,-258.58 120.68,-334.05 41.32,-103.91 96.62,-208.25 208.73,-220.08 122.32,-12.92 182.02,-146.59 -83.16,-152.69 -295.41,-6.81 -332.87,180.63 -404.01,250.26 -284.29,278.25 -599.34,449.77 -1019.68,493.24 -280.01,28.97 -567.22,-23.5 -542.17,-328.36 43.52,-529.51 1143.3,-1077.15 1567.37,-1020.37 239.52,32.06 116.27,173.47 222.35,214.13 120.93,46.34 177.17,-116.86 81.55,-236.81 -122.96,-154.25 -463.37,-159.42 -708.94,-129.81 -1301.05,156.84 -1765.16,1455.07 -944.6,1709.83 240.17,74.57 532.3,24.38 739.07,-68.92 312.84,-141.18 317.1,-191.62 529.73,-327.73 -5.95,41.11 -30.63,102.83 -44.48,143.16 -29.81,86.8 -8.13,78.02 -90.61,103.45 -384.86,118.75 -948.86,439.19 -1108.78,790.83 -173.99,382.56 232.86,648.82 783.61,195.82 209.65,-172.46 366.07,-409.45 495.74,-651.79 22.15,-41.37 107.59,-233.94 126.59,-249.44 77.02,-62.73 275.51,-25.75 313.02,-72.69 41.27,-51.64 -1.96,-97.1 -56.35,-110.48 -62.29,-15.35 -119.72,-0.6 -185.65,2.49z"/>
   <path class="fil0" d="M8643.96 1500.4c70.15,-98.74 467.29,-347.94 617.18,-434.64 180.9,-104.64 362.03,-184.11 518.43,-270.63 216.65,-119.85 7.7,-356.49 -293.61,-156.1 -110.67,73.59 -809.29,583.73 -890.14,677.57l-84.26 -27.28c65.83,-158.71 136.83,-323.68 210.58,-488.91 43.24,-96.88 78.82,-180.69 -80.9,-188.25 -151.4,-7.16 -151.34,23.04 -212.52,125.24 -71.91,120.11 -219.72,259.34 -397.04,291.26 -136.29,24.52 -114.65,158.64 19.16,148.52 113.88,-8.61 178.69,-49.02 267.86,-69.58 -18.7,94.42 -159.19,423.56 -205.66,526.37 -140.21,310.27 -499.97,993.67 -918.14,897.47 -110.7,-25.47 -72.76,-187.61 -190,-152.56 -116.62,34.86 -43.06,345.68 296.12,337.73 213.11,-5 390.96,-143.81 491.65,-238.07 150.79,-141.17 221.58,-281.2 324.94,-400.07 43.96,-50.57 296.66,-355.18 352.18,-380.02 24.91,138.45 104.43,318.69 172.16,433.76 233.29,396.41 659.73,352.37 755.96,170.89 92.1,-173.7 -153.01,-400.19 -221.54,-266.28 -24.29,80.83 81.22,122.24 64.02,218.94 -217.54,50.43 -543.85,-500.11 -596.42,-755.35z"/>
   <path class="fil0" d="M6737.8 806.47c112.27,-14.6 419.32,-30.75 276.85,123.17 -25.48,27.54 -111.52,79.63 -83.68,141.5 31.14,69.23 128.35,24.33 166.5,-3.53 71.58,-52.27 181.72,-213.32 137.95,-327.38 -106.81,-278.4 -888.8,-82.68 -1123.03,38.89 -270.52,140.39 -410.49,374.94 -141.51,546.32 314.74,200.53 1058.07,246.61 875.84,509.62 -161.41,232.94 -747.58,385.58 -1069.25,375.48 -137.56,-4.32 -325.72,-31.37 -283.91,-194.35 35.54,-138.49 264.04,-272.34 406.39,-319.83 86.53,-28.87 116.65,-22.07 205.38,-34.86 117.84,-17.02 180.86,-181.16 -167.62,-128.55 -677.06,102.18 -1013.73,796.84 -388.02,893.84 296.47,45.96 581.37,-28.87 825.58,-118.29 432.28,-158.3 1099.34,-571.11 419.3,-935.11 -132.11,-70.71 -632.02,-216.41 -691.16,-273.48 -69.33,-66.91 182.82,-171.84 249.36,-198.53 121.86,-48.88 242.93,-76.43 385.04,-94.91z"/>
  </g>
  <g id="_2317590185840">
   <g>
    <path class="fil1" d="M1699.38 1036.76c22.54,-6.44 125.54,-54.4 139.2,-67.11l0.57 -104.52c-35.79,-1.45 -86.66,30.11 -108.3,46.65 -43.09,32.92 -35.38,59.63 -31.47,124.98z"/>
    <path class="fil1" d="M1695.54 840.97l120.79 -54.42 1.96 -112.09c-115.8,16.89 -125.38,47.41 -122.74,166.51z"/>
    <path class="fil1" d="M1490.73 841.79l0.31 114.02c23.31,-0.8 94.63,-44.12 120.43,-56.67l0.18 -111.46 -120.92 54.11z"/>
    <path class="fil1" d="M1697.31 1130.11l-2.84 105.1c115.26,-19.62 126.07,-46.99 122.61,-166.78l-119.77 61.68z"/>
   </g>
   <path class="fil0" d="M2909.22 1666.41c-140.68,-11.67 -122.22,-101.1 -122.35,-163.2 24.51,5.32 103.93,45.01 120.47,63.19l1.87 100.01zm206.35 -75.44c-34,-11.92 -67.46,-28.95 -92.2,-51.87 -37.18,-34.43 -30.26,-53.07 -30.28,-112.51 107.18,8.54 132.63,53.92 122.49,164.38zm-328.58 -294.44c22.61,5.6 44.65,19.32 62.82,28.28 11.08,5.46 20.28,9.67 31.04,15.69 5.29,2.96 10.49,6.18 14.6,9.65 8.74,7.37 2.41,0.33 11.6,10.44l1.33 100.1 -121.16 -38.54 -0.22 -125.62zm207.34 -78.32l122.08 57.21 -0.34 110.76 -122.64 -56.61 0.9 -111.36zm-206.44 -111.75c38.65,3.79 82.1,19.51 103.35,41.87 26.81,28.21 20.1,76.59 18.37,124.36l-122.85 -54.69 1.13 -111.53zm-1235.98 -464.95c-15.47,33.33 -16.26,14.31 10.52,15.41l317.88 -149.26 -0.1 1569.91 370.15 -205.9 0.92 -804.51 432.4 -185.82 -0.4 1182.91 -330.68 174.34c-31.23,17.16 -81.38,39.33 -104.56,59.23l457.31 176.42 -0.64 1011.04c71.33,-11.67 390.66,-189.26 456.19,-261.86 41.36,-45.82 38.57,-65.43 38.52,-144.04 -0.1,-168.13 -4.28,-367.23 0.54,-528.82l411.68 34.9c-23.51,514.12 -799.59,1034.81 -1360.07,1102.36 -100.76,12.15 -497.15,11.12 -603.87,2.67 -402.37,-31.87 -746.92,-256.75 -1046.52,-487.12 -34.25,-26.34 -136.76,-112.9 -182.87,-126.04 17.01,160.32 464.49,478.41 621.11,569.19 80.4,46.59 178.55,86.58 268.5,125.26 606.24,260.63 1339.69,207.77 1934.47,-96.61 204.84,-104.83 316.29,-194.01 453.11,-334.44 121.36,-124.56 244.82,-257.12 357.67,-429.62 78.84,-120.52 235.14,-381.95 216.04,-572.18 -75.52,-88.48 -882.24,-205.05 -1069.15,-238.48l0.16 -150.41c249.94,-1.06 451.9,46.05 672.93,102.87 104.83,26.95 207,53.01 308.1,79.73 152.9,40.41 130.85,43.78 130.9,-205.08 0.03,-162.68 17.06,-215.92 -128.12,-262.57 -186.41,-59.89 -311.34,-64.7 -484.03,-92.64 -188.79,-30.55 -283.16,-65.18 -500.44,-73.6l-0.8 -376.6c-82,-18.61 -287.4,-173.56 -359.02,-222.09 -84.01,-56.93 -104.71,-72.52 -213.77,-27.63 -56.08,23.09 -155.22,72.14 -209.63,79.88 -1.92,-103.94 13.65,-89.44 -45.46,-147.55 -61.71,-60.67 -378.09,-303.95 -434.47,-330.28 -35.75,-16.69 -105,23.24 -139.1,39.08 -39.21,18.23 -229.27,108.38 -245.42,127.96z"/>
   <path class="fil0" d="M883.76 1968.63c13.72,-34.52 35,-40.81 86.09,-68.42 82.79,-44.73 78.26,-46.6 169.94,-83.46 25.79,-10.37 45.95,-19.39 76.31,-25.39 61.64,-12.2 67.86,18.44 92.47,46.84l57.82 45.87 52.14 14.11 5.24 -693.08c-4.87,18.87 -1.75,11.67 -11.51,23.09l-7.23 250.27 -780.24 69.33c-5.78,-367.99 293.56,-676.99 467.65,-833.63 196.57,-176.88 522.92,-366.01 858.1,-440.64 196.1,-43.67 404.57,-32.44 613.91,-32.35 281.11,0.1 734.46,160.07 963.68,334.74 33.24,25.33 55.68,46.81 86.62,72.11 27.65,22.61 64.62,54.63 87.07,77.55 25.65,26.2 140.26,141.3 190.13,137.65 8.7,-141.06 -479.64,-478.8 -614.14,-560.09 -498.95,-301.56 -801.08,-271.15 -874.26,-303.14l-523.59 0c-30.46,13.92 -163.26,27.53 -211.49,38.18 -368.95,81.45 -719.71,257.66 -1004.2,494.58 -205.77,171.37 -412.56,487.03 -524.26,727.56 -53.08,114.29 -98,242.43 -121.55,376.73 -13.54,77.21 -26.63,409.75 -12.13,480.32 248.82,24.17 506.41,-113.87 755.81,-110.22 -10.7,22.27 -9.06,8.38 -14.11,27.19l-2.34 120.13 -698.26 112.78 82.72 398.43 594.15 -83.03c0.96,117.36 -4.15,409.34 8.11,511.49 3.37,28.07 5.95,50.92 8.78,79.17 5.61,55.98 -0.53,61.82 19.11,70.99 15.19,-23.46 6.52,-569.4 6.52,-593.93l1.35 -605.3c6.84,-14.57 110.95,-71.55 115.58,-76.45z"/>
   <path class="fil0" d="M1880.46 3642.38c70.01,-2.78 140.53,-9.05 210.07,-14.28 161.05,-12.1 160.45,6.23 160.43,-49.21l0.26 -863.87c0.12,-96.63 -287.23,-156 -370.45,-163.93l-0.3 1091.29z"/>
   <path class="fil2" d="M1412.27 1228.2c9.76,-11.42 6.64,-4.22 11.51,-23.09l-5.24 693.08 -52.14 -14.11 -57.82 -45.87c-24.61,-28.4 -30.83,-59.05 -92.47,-46.84 -30.36,6 -50.52,15.02 -76.31,25.39 -91.68,36.86 -87.15,38.72 -169.94,83.46 -51.09,27.6 -72.37,33.89 -86.09,68.42l314.34 -130.11 1.67 1669.72c54.83,14.93 202.03,72.17 246.22,74.33 5.09,-754.82 0.12,-1515.92 0.88,-2272.08 0.06,-54.41 -8.09,-534.72 7.76,-563.6 24.39,-44.43 82.34,-56.64 107.79,-89.98 -26.78,-1.1 -25.99,17.92 -10.52,-15.41 -30.06,7.95 -108.5,56.08 -125.38,70.05l-14.26 516.64z"/>
   <path class="fil3" d="M1489.45 1159.35l122.22 -54.25 0.35 -111.3c-38.83,4.25 -78.78,17.03 -101.19,38.88 -30.8,30.03 -22.17,75.47 -21.39,126.67z"/>
  </g>
 </g>
</svg>
