<?xml version="1.0" encoding="UTF-8"?>
<!DOCTYPE svg PUBLIC "-//W3C//DTD SVG 1.1//EN" "http://www.w3.org/Graphics/SVG/1.1/DTD/svg11.dtd">
<!-- Creator: CorelDRAW 2021 (64-Bit) -->
<svg xmlns="http://www.w3.org/2000/svg" xml:space="preserve" width="244.41mm" height="56.7506mm" version="1.1" style="shape-rendering:geometricPrecision; text-rendering:geometricPrecision; image-rendering:optimizeQuality; fill-rule:evenodd; clip-rule:evenodd"
viewBox="0 0 22946.51 5328.06"
 xmlns:xlink="http://www.w3.org/1999/xlink"
 xmlns:xodm="http://www.corel.com/coreldraw/odm/2003">
 <defs>
  <style type="text/css">
   <![CDATA[
    .fil0 {fill:white}
   ]]>
  </style>
 </defs>
 <g id="Layer_x0020_1">
  <metadata id="CorelCorpID_0Corel-Layer"/>
  <g id="_1894970248880">
   <g id="_2317590184592">
    <path class="fil0" d="M19123.19 2158.49c23.35,39.24 55.33,256.66 44.75,312.09 -31.36,164.1 -122.92,85.82 -166.84,205.55 -27.54,75.11 20.91,83.88 -38.32,148.76 -243.14,266.48 -506.79,265.7 -375.53,-102.19 33.91,-95.05 81.58,-170.75 133.64,-239.22 67.01,-88.18 254.47,-308.42 402.31,-324.98l0.01 -0.01zm2610.3 814.43c88.09,-243.62 353.02,-557.18 568.87,-694.02 35.48,-22.48 240.41,-141.2 283.06,-99.39 140.84,138.04 -526.82,783.7 -851.94,793.4l0 0.01zm1212.95 -586.32l0 -205.15c-87.16,-131.57 -162.33,-202.32 -359.6,-214.74 -88.72,-5.6 -173.84,10.34 -248.08,38.21 -72.06,27.05 -128.59,71.58 -192.72,93.36 29.73,-123.51 49.02,-209.87 -67.25,-256.82 -72.89,-29.43 -215.14,-23.97 -273.77,15.01 -59.84,39.81 -62.29,180.62 -83.17,251.66 -86.73,295.04 -155.28,421.56 -391.69,613.88 -96.75,78.72 -181.72,152.07 -291.16,217.32 -239.63,142.9 -91.87,-256.21 -50.2,-346.4 80.69,-174.72 333.53,-486.83 313.16,-570.35 -23.17,-94.84 -208.54,-135.4 -333.38,-117.92 -75.9,101.73 -139.12,207.35 -204.79,313.43 -91.65,148.11 -339.41,461.58 -467.36,574.91 -276.91,245.23 -465.44,223.85 -248.54,-161.67 150.57,-267.64 368.13,-399.8 386.1,-447.05 49.13,-129.18 -134.36,-157.39 -240.68,-150.3 -149.07,9.94 -189.99,77.62 -257.93,162.42 -55.04,68.7 -118.18,157.15 -167.08,242.45 -67.65,117.97 -317.2,379.06 -460.11,373.28 23.57,-93 381.74,-483.75 44.3,-662.13 -2.4,-244.23 -252.43,-294.95 -471.66,-214.19 -393.61,145.02 -453.49,449.98 -756.69,733.2 -76.41,71.38 -312.56,282.04 -433.29,307.1 -15.49,-223.95 286.29,-576.22 383.47,-679.64 435.2,-463.09 -153.3,-358.54 -360.66,-373.26 16.17,-68.29 150.47,-185.04 142.96,-290.19 -14.46,-202.81 -383.71,9.08 -530.56,175.89 -126.76,144 -118.35,195.74 -45.17,295.04 -36.21,85.02 -169.51,260.33 -226.6,327.14 -29.23,34.21 -113.29,127.04 -128.04,158 -36.94,77.57 12.97,152.54 97.91,146.49 95.29,-6.81 485.69,-535.66 519.02,-594.47 77.9,2.38 156.58,12.35 224.41,39.55 -20.19,71.17 -115.83,148.49 -155.06,187.68 -602.64,601.51 -263.54,996.44 200.27,807.93 175.62,-71.38 283.73,-198.76 404.26,-283.98 27.89,36.1 16.41,27.1 31.3,73.88 52.45,164.64 212.09,251.32 390.78,249.52 258.91,-2.61 353,-115.22 496.49,-226.28 112.47,30.87 139.65,83.47 297.06,30.56 98.66,-33.17 154.7,-88.05 224.28,-134.39 63.06,94.19 24.95,141.39 155.04,217.92 394.28,231.97 655.1,-176.27 742.38,-223.19 1.61,216.88 109.3,354.81 344.41,331.93 270.67,-26.33 363.59,-170.33 464.59,-208.33 -18.22,90.54 -108.89,275.41 -146.41,362.9l-302.67 676.83c-47.68,102.35 -148.34,233.07 -128.7,360.72 60.21,101.32 325.93,21.11 397.04,-42.48 54.12,-48.41 138.55,-256.96 165.05,-355.46 21.98,-81.63 16.34,-156.55 39.24,-232.63 30.92,-102.82 178.99,-493.66 218.92,-562.61 96.87,-8.09 155.04,4.61 257.23,-17.3 188.05,-40.33 418.88,-128.31 575.48,-232.42 115.04,-76.51 221.31,-161.46 299.26,-246.88 197.62,-216.46 118.74,-180.49 208.66,-327.99l-0.07 0.03z"/>
    <path class="fil0" d="M15884.78 3133.81c-54.85,246.07 -479.25,870.44 -707.15,1057.47 -407.21,334.22 -766.15,41.66 -38.92,-634.93 131,-121.87 506,-362.9 746.08,-422.56l-0.01 0.02zm522.1 -350.39c19.99,-105.55 122.64,-349.75 163.24,-451.83 55.89,-140.56 130.69,-281.68 282.33,-297.68 165.45,-17.47 246.21,-198.29 -112.48,-206.53 -399.58,-9.21 -450.25,244.33 -546.48,338.51 -384.54,376.37 -810.68,608.36 -1379.25,667.16 -378.75,39.19 -767.24,-31.79 -733.36,-444.14 58.87,-716.23 1546.46,-1456.98 2120.07,-1380.18 323.98,43.37 157.27,234.64 300.75,289.64 163.58,62.68 239.64,-158.07 110.31,-320.32 -166.32,-208.64 -626.77,-215.64 -958.94,-175.58 -1759.84,212.14 -2387.61,1968.16 -1277.7,2312.76 324.86,100.86 720.01,32.97 999.68,-93.22 423.16,-190.96 428.92,-259.19 716.52,-443.29 -8.05,55.6 -41.43,139.08 -60.16,193.63 -40.32,117.4 -10.99,105.54 -122.56,139.93 -520.58,160.63 -1283.45,594.06 -1499.76,1069.7 -235.34,517.46 314.98,877.61 1059.93,264.87 283.58,-233.28 495.16,-553.83 670.55,-881.63 29.96,-55.96 145.53,-316.43 171.23,-337.4 104.18,-84.85 372.66,-34.83 423.4,-98.33 55.82,-69.85 -2.65,-131.34 -76.22,-149.44 -84.25,-20.77 -161.93,-0.81 -251.12,3.37l0 0.01z"/>
    <path class="fil0" d="M11692.1 2029.48c94.89,-133.56 632.07,-470.64 834.82,-587.91 244.69,-141.54 489.69,-249.03 701.23,-366.06 293.04,-162.11 10.41,-482.2 -397.14,-211.15 -149.69,99.54 -1094.67,789.57 -1204.02,916.5l-113.98 -36.9c89.04,-214.68 185.08,-437.82 284.84,-661.31 58.49,-131.05 106.62,-244.4 -109.42,-254.64 -204.79,-9.69 -204.71,31.16 -287.46,169.41 -97.27,162.47 -297.2,350.79 -537.04,393.96 -184.35,33.17 -155.08,214.58 25.91,200.9 154.04,-11.64 241.7,-66.3 362.31,-94.12 -25.29,127.71 -215.33,572.92 -278.18,711.98 -189.65,419.67 -676.28,1344.05 -1241.91,1213.94 -149.74,-34.46 -98.42,-253.76 -257,-206.36 -157.75,47.15 -58.25,467.58 400.54,456.83 288.26,-6.76 528.82,-194.52 665.02,-322.02 203.97,-190.95 299.72,-380.36 439.52,-541.15 59.46,-68.4 401.27,-480.42 476.37,-514.01 33.7,187.27 141.25,431.06 232.86,586.71 315.56,536.2 892.37,476.63 1022.53,231.16 124.58,-234.95 -206.96,-541.3 -299.66,-360.18 -32.86,109.33 109.86,165.34 86.6,296.14 -294.25,68.22 -735.63,-676.45 -806.74,-1021.7l-0.01 -0.02z"/>
    <path class="fil0" d="M9113.77 1090.85c151.86,-19.74 567.18,-41.59 374.47,166.6 -34.47,37.25 -150.85,107.71 -113.19,191.39 42.12,93.64 173.61,32.91 225.21,-4.78 96.82,-70.71 245.8,-288.54 186.6,-442.82 -144.47,-376.57 -1202.21,-111.84 -1519.04,52.6 -365.91,189.89 -555.23,507.15 -191.41,738.97 425.72,271.24 1431.18,333.58 1184.68,689.33 -218.33,315.07 -1011.2,521.53 -1446.29,507.87 -186.07,-5.84 -440.58,-42.44 -384.03,-262.88 48.07,-187.32 357.15,-368.37 549.69,-432.61 117.05,-39.05 157.78,-29.86 277.81,-47.15 159.39,-23.02 244.64,-245.04 -226.72,-173.88 -915.81,138.21 -1371.19,1077.82 -524.84,1209.03 401,62.17 786.37,-39.05 1116.69,-160 584.72,-214.12 1487,-772.49 567.16,-1264.84 -178.69,-95.64 -854.89,-292.73 -934.88,-369.92 -93.78,-90.51 247.28,-232.43 337.29,-268.54 164.83,-66.11 328.59,-103.38 520.82,-128.38l-0.03 -0.01z"/>
   </g>
   <g id="_2317590185840">
    <g>
     <path class="fil0" d="M2298.67 1402.35c30.48,-8.71 169.81,-73.59 188.29,-90.78l0.77 -141.37c-48.41,-1.96 -117.22,40.73 -146.49,63.1 -58.28,44.53 -47.85,80.66 -42.57,169.05z"/>
     <path class="fil0" d="M2293.48 1137.52l163.38 -73.61 2.65 -151.62c-156.64,22.84 -169.59,64.12 -166.02,225.22l-0.01 0z"/>
     <path class="fil0" d="M2016.45 1138.62l0.42 154.23c31.53,-1.08 128,-59.67 162.9,-76.66l0.24 -150.76 -163.56 73.19 -0.01 0z"/>
     <path class="fil0" d="M2295.88 1528.62l-3.84 142.16c155.91,-26.54 170.52,-63.56 165.85,-225.59l-162.01 83.43z"/>
    </g>
    <path class="fil0" d="M3935.13 2254.03c-190.29,-15.78 -165.32,-136.75 -165.49,-220.75 33.15,7.19 140.57,60.88 162.95,85.47l2.53 135.28 0.02 0zm279.11 -102.04c-45.99,-16.12 -91.25,-39.16 -124.71,-70.16 -50.29,-46.57 -40.93,-71.78 -40.96,-152.19 144.98,11.55 179.4,72.93 165.68,222.35l-0.01 0zm-444.44 -398.26c30.58,7.58 60.4,26.13 84.98,38.25 14.98,7.39 27.43,13.08 41.99,21.22 7.15,4 14.19,8.36 19.74,13.05 11.82,9.97 3.26,0.45 15.69,14.12l1.8 135.4 -163.89 -52.13 -0.3 -169.91 -0.01 0.01zm280.45 -105.94l165.13 77.38 -0.46 149.81 -165.89 -76.57 1.22 -150.63 0 0.01zm-279.23 -151.16c52.28,5.13 111.05,26.39 139.8,56.63 36.27,38.16 27.19,103.59 24.85,168.21l-166.17 -73.97 1.53 -150.86 -0.01 -0.02zm-1671.82 -628.91c-20.93,45.08 -22,19.36 14.23,20.84l429.98 -201.89 -0.13 2123.49 500.66 -278.49 1.25 -1088.21 584.88 -251.35 -0.54 1600.03 -447.29 235.82c-42.24,23.21 -110.08,53.2 -141.43,80.11l618.57 238.63 -0.86 1367.56c96.49,-15.78 528.42,-256 617.05,-354.2 55.95,-61.97 52.17,-88.51 52.11,-194.83 -0.13,-227.42 -5.79,-496.73 0.73,-715.29l556.85 47.21c-31.8,695.41 -1081.55,1399.71 -1839.67,1491.09 -136.29,16.43 -672.45,15.04 -816.8,3.61 -544.25,-43.11 -1010.3,-347.29 -1415.56,-658.89 -46.32,-35.63 -184.98,-152.71 -247.35,-170.49 23.01,216.86 628.28,647.11 840.13,769.9 108.75,63.02 241.51,117.11 363.18,169.43 820.01,352.54 1812.09,281.04 2616.61,-130.68 277.07,-141.8 427.83,-262.42 612.89,-452.38 164.16,-168.49 331.15,-347.79 483.79,-581.11 106.64,-163.02 318.06,-516.63 292.22,-773.94 -102.15,-119.69 -1193.34,-277.36 -1446.16,-322.57l0.22 -203.45c338.07,-1.44 611.25,62.29 910.23,139.15 141.8,36.46 279.99,71.7 416.75,107.85 206.82,54.66 176.99,59.21 177.06,-277.38 0.04,-220.05 23.08,-292.06 -173.3,-355.16 -252.15,-81 -421.12,-87.51 -654.71,-125.31 -255.36,-41.32 -383.02,-88.17 -676.91,-99.56l-1.08 -509.4c-110.92,-25.17 -388.74,-234.76 -485.62,-300.41 -113.64,-77 -141.64,-98.09 -289.15,-37.38 -75.86,31.24 -209.96,97.58 -283.55,108.04 -2.6,-140.59 18.47,-120.98 -61.49,-199.58 -83.47,-82.07 -511.41,-411.13 -587.67,-446.74 -48.36,-22.58 -142.03,31.43 -188.15,52.86 -53.04,24.65 -310.11,146.6 -331.96,173.08l0.01 0z"/>
    <path class="fil0" d="M1195.44 2662.81c18.56,-46.68 47.35,-55.2 116.45,-92.53 111.99,-60.5 105.86,-63.03 229.87,-112.89 34.89,-14.03 62.15,-26.23 103.22,-34.34 83.38,-16.51 91.79,24.95 125.07,63.35l78.21 62.05 70.53 19.09 7.09 -937.48c-6.59,25.53 -2.37,15.78 -15.57,31.24l-9.78 338.52 -1055.38 93.78c-7.82,-497.75 397.08,-915.71 632.55,-1127.59 265.88,-239.26 707.31,-495.08 1160.68,-596.02 265.25,-59.07 547.23,-43.88 830.39,-43.76 380.24,0.13 993.45,216.52 1303.51,452.78 44.96,34.26 75.31,63.32 117.17,97.54 37.4,30.58 87.41,73.9 117.77,104.9 34.69,35.44 189.72,191.12 257.17,186.19 11.76,-190.8 -648.78,-647.64 -830.71,-757.59 -674.9,-407.89 -1083.56,-366.76 -1182.55,-410.04l-708.22 0c-41.2,18.82 -220.83,37.23 -286.07,51.65 -499.05,110.17 -973.5,348.52 -1358.31,668.98 -278.33,231.8 -558.04,658.78 -709.13,984.12 -71.79,154.59 -132.56,327.91 -164.41,509.57 -18.32,104.44 -36.02,554.23 -16.41,649.69 336.56,32.69 684.99,-154.03 1022.33,-149.09 -14.48,30.12 -12.25,11.33 -19.09,36.77l-3.16 162.49 -944.49 152.55 111.89 538.93 803.67 -112.31c1.3,158.74 -5.61,553.69 10.97,691.86 4.56,37.97 8.05,68.87 11.88,107.09 7.59,75.72 -0.71,83.62 25.85,96.03 20.54,-31.73 8.82,-770.19 8.82,-803.37l1.82 -818.75c9.25,-19.71 150.08,-96.78 156.34,-103.41l0.05 0.01z"/>
    <path class="fil0" d="M2543.61 4926.77c94.68,-3.76 190.07,-12.24 284.13,-19.31 217.84,-16.36 217.03,8.43 217.01,-66.56l0.35 -1168.5c0.16,-130.71 -388.52,-211.01 -501.08,-221.74l-0.4 1476.11 -0.01 0z"/>
    <path class="fil0" d="M1910.33 1661.29c13.2,-15.44 8.98,-5.71 15.57,-31.24l-7.09 937.48 -70.53 -19.09 -78.21 -62.05c-33.29,-38.42 -41.7,-79.87 -125.07,-63.35 -41.07,8.11 -68.34,20.32 -103.22,34.34 -124.01,49.86 -117.88,52.37 -229.87,112.89 -69.11,37.33 -97.89,45.84 -116.45,92.53l425.19 -175.98 2.26 2258.5c74.16,20.19 273.27,97.62 333.04,100.54 6.88,-1021 0.16,-2050.48 1.19,-3073.28 0.08,-73.6 -10.95,-723.27 10.5,-762.34 32.99,-60.1 111.38,-76.61 145.8,-121.71 -36.22,-1.48 -35.15,24.24 -14.23,-20.84 -40.66,10.75 -146.76,75.86 -169.59,94.75l-19.28 698.82 -0.01 0.02z"/>
    <path class="fil0" d="M2014.72 1568.17l165.32 -73.38 0.47 -150.55c-52.52,5.75 -106.56,23.04 -136.88,52.59 -41.66,40.61 -29.99,102.08 -28.94,171.34l0.02 -0.01z"/>
   </g>
  </g>
 </g>
</svg>
